<?xml version="1.0" standalone="no"?>
<!DOCTYPE svg PUBLIC "-//W3C//DTD SVG 20010904//EN"
 "http://www.w3.org/TR/2001/REC-SVG-20010904/DTD/svg10.dtd">
<svg version="1.0" xmlns="http://www.w3.org/2000/svg"
 width="2065.000000pt" height="1076.000000pt" viewBox="0 0 565.000000 676.000000"
 preserveAspectRatio="xMidYMid meet">

<g transform="translate(0.000000,676.000000) scale(0.100000,-0.100000)"
fill="#ff4b4b" stroke="none">
<path d="M2785 6486 c-68 -22 -201 -77 -412 -170 -56 -24 -223 -90 -370 -146
-547 -209 -673 -277 -673 -366 0 -68 19 -90 84 -101 35 -6 217 -73 373 -137
60 -24 127 -50 151 -57 24 -7 48 -21 54 -32 6 -11 11 -100 13 -206 2 -210 5
-219 77 -287 38 -37 87 -67 168 -103 20 -9 12 -10 -41 -5 -81 7 -93 -5 -48
-47 63 -59 131 -74 252 -57 76 10 99 10 170 -5 229 -48 395 -64 487 -47 36 7
80 14 98 17 19 3 44 15 57 27 23 21 150 73 140 57 -3 -5 4 -7 15 -4 11 3 20
12 20 20 0 8 4 11 10 8 5 -3 23 1 39 10 17 8 41 15 56 15 14 0 25 4 25 10 0
11 72 50 93 50 8 0 26 9 41 21 14 11 26 16 26 10 0 -18 20 -12 26 7 3 9 12 30
21 45 14 27 31 241 33 408 l0 56 123 47 c68 25 128 46 133 46 7 0 13 -81 18
-222 3 -123 9 -235 12 -250 6 -28 6 -28 -43 -28 -28 0 -65 -5 -83 -11 l-33
-12 8 -254 7 -255 -78 7 c-150 11 -1193 10 -2183 -3 l-995 -14 -50 -25 c-27
-14 -73 -47 -101 -74 -29 -27 -57 -49 -63 -49 -38 0 30 142 94 199 55 48 101
60 271 70 l128 7 -138 8 c-76 5 -173 6 -216 4 -70 -4 -84 -8 -137 -44 -106
-71 -144 -159 -144 -339 0 -55 5 -278 12 -495 10 -337 9 -492 -6 -1058 -10
-364 -14 -688 -11 -720 10 -78 46 -142 125 -216 107 -101 93 -99 656 -97 l474
1 0 -50 c0 -39 -4 -52 -17 -57 -48 -15 -109 -49 -163 -89 l-60 -44 1 -437 c0
-241 4 -501 8 -578 11 -180 24 -214 100 -263 56 -36 57 -36 201 -43 80 -4 341
-8 581 -8 l437 -1 77 -37 c71 -33 84 -36 166 -36 81 1 95 4 165 37 l76 36 574
0 c635 0 608 -3 684 66 79 72 74 31 78 666 4 565 4 568 -17 602 -31 50 -82 91
-137 111 -63 24 -74 33 -74 60 0 50 0 50 509 55 l476 5 48 29 c69 41 142 119
174 185 l27 56 10 478 c12 610 -4 1984 -24 2037 -20 55 -98 140 -148 162 -56
25 -297 33 -577 20 l-190 -9 294 -1 293 -2 68 -36 c77 -40 127 -85 146 -131
28 -66 10 -71 -51 -14 -24 22 -60 45 -81 52 -41 13 -744 26 -790 15 -16 -4
-27 -17 -33 -39 -8 -29 -9 -25 -11 33 -12 434 -16 508 -29 523 -10 12 -30 17
-71 17 l-57 0 -6 48 c-4 26 -10 151 -13 278 l-7 230 105 62 c147 85 172 121
124 179 -44 53 -168 110 -676 316 -129 52 -305 125 -390 162 -255 110 -411
165 -465 164 -16 0 -61 -10 -100 -23z m183 -162 c42 -15 156 -58 252 -97 361
-144 431 -171 686 -267 144 -54 274 -106 289 -116 25 -17 26 -19 9 -31 -30
-22 -79 -15 -186 26 -201 76 -354 99 -718 111 -200 6 -276 12 -309 24 -24 9
-70 16 -103 16 -54 0 -62 -3 -99 -37 -69 -66 -68 -138 2 -195 70 -56 152 -48
234 24 l46 41 247 -6 c190 -4 276 -10 372 -27 102 -18 252 -59 267 -73 3 -4
-90 -41 -692 -278 l-360 -141 -80 27 c-173 60 -1128 445 -1222 493 l-35 19 58
27 c79 38 222 95 434 172 166 62 400 154 665 263 66 28 130 50 143 50 13 1 58
-11 100 -25z m650 -1079 l4 -154 -58 -26 c-77 -35 -313 -124 -440 -166 -91
-31 -109 -33 -219 -33 -88 1 -145 7 -214 24 -218 52 -487 163 -523 215 -9 12
-8 218 1 260 4 18 14 31 24 33 19 4 229 -73 532 -195 l159 -64 61 22 c74 26
449 174 565 223 54 22 88 32 94 26 6 -6 12 -80 14 -165z m608 -336 c-3 -17 -6
-119 -6 -225 l0 -194 -83 0 -84 0 -6 158 c-4 86 -7 187 -7 225 l0 67 96 0 97
0 -7 -31z m-1036 -537 c381 -99 662 -325 826 -665 70 -147 85 -220 91 -447 8
-285 -12 -387 -108 -556 -108 -190 -293 -396 -434 -485 -133 -84 -316 -154
-468 -179 -103 -17 -303 -12 -431 10 -274 47 -465 147 -657 347 -219 228 -313
444 -334 773 -8 120 7 297 35 407 22 82 97 240 160 334 113 167 313 311 569
410 186 72 285 89 486 84 127 -2 167 -7 265 -33z m-1844 -209 l9 -58 48 -7
c62 -8 77 -22 77 -68 0 -43 -14 -58 -74 -80 -38 -14 -45 -23 -76 -90 -9 -19
-77 -25 -96 -9 -8 7 -21 28 -29 46 -11 26 -27 39 -69 58 -75 33 -94 71 -58
116 12 14 34 24 63 28 43 6 44 7 47 46 5 59 24 75 92 75 l57 0 9 -57z m-492
-208 c19 -18 26 -34 26 -61 0 -82 -86 -113 -149 -55 -39 37 -40 70 -2 110 37
40 86 42 125 6z m3710 -59 c18 -29 50 -63 70 -75 39 -25 55 -63 36 -86 -6 -8
-27 -19 -46 -25 -24 -8 -40 -23 -52 -47 -33 -70 -71 -69 -106 1 -13 27 -31 43
-62 56 -30 13 -45 27 -50 44 -9 39 0 53 53 78 38 18 49 29 54 54 8 44 17 54
44 54 18 0 33 -13 59 -54z m-3531 -320 c9 -13 23 -48 32 -79 l16 -56 67 -6
c104 -10 137 -22 150 -50 7 -14 12 -32 12 -39 0 -24 -41 -66 -88 -90 l-47 -24
0 -108 0 -109 -28 -3 c-22 -3 -36 5 -65 35 -21 21 -45 49 -55 63 l-17 25 -23
-30 c-42 -56 -85 -95 -105 -95 -27 0 -69 35 -76 65 -4 15 2 48 14 82 12 32 23
66 26 75 5 13 -4 19 -38 28 -61 17 -108 54 -108 88 0 15 4 32 8 39 12 19 59
33 111 33 54 0 60 5 84 70 30 80 53 110 86 110 19 0 34 -8 44 -24z m3831 -69
c16 -16 26 -41 31 -76 9 -63 25 -81 75 -81 55 0 85 -27 85 -78 0 -52 -22 -75
-90 -97 -51 -16 -55 -19 -65 -58 -14 -58 -30 -87 -62 -110 -23 -17 -29 -18
-43 -7 -23 19 -55 85 -55 113 0 42 -31 69 -91 78 -78 12 -104 49 -80 113 8 20
21 27 73 38 62 14 63 15 76 59 35 119 92 160 146 106z m190 -669 c17 -18 45
-43 61 -54 l30 -21 -25 -36 c-39 -54 -76 -80 -105 -73 -13 3 -50 30 -81 59
l-57 53 62 52 c34 29 67 52 73 52 7 0 25 -15 42 -32z m-550 -9 c20 -57 -20
-139 -68 -139 -36 0 -78 51 -74 91 6 68 121 107 142 48z m-3184 -56 c41 -26
80 -66 80 -79 0 -17 -55 -71 -91 -89 -25 -13 -33 -14 -63 -1 -81 34 -89 132
-12 170 40 20 56 20 86 -1z m3366 -171 c6 -4 19 -23 29 -42 10 -19 44 -61 76
-92 72 -69 76 -94 22 -135 -20 -15 -58 -49 -84 -75 -26 -27 -52 -48 -59 -48
-23 0 -51 22 -75 60 -17 27 -33 40 -48 40 -77 1 -83 109 -7 152 17 10 41 40
59 76 34 67 57 84 87 64z m-3687 -117 c37 -19 121 -112 121 -135 0 -37 -99
-147 -122 -136 -7 3 -42 28 -78 54 -85 63 -87 80 -21 158 28 32 51 62 51 67 0
11 18 8 49 -8z m1971 -795 c0 -16 -62 -50 -91 -50 -26 0 -75 41 -62 53 11 11
153 8 153 -3z m991 -31 l116 -12 6 -291 c4 -160 7 -409 7 -554 0 -218 -2 -264
-14 -268 -8 -3 -69 2 -136 10 -157 21 -441 21 -547 1 -43 -8 -153 -34 -245
-57 -91 -24 -169 -41 -172 -38 -7 8 -11 318 -8 707 l2 352 63 35 c119 66 300
113 502 130 81 6 301 -1 426 -15z m-1486 -9 c83 -16 265 -94 311 -134 l39 -34
3 -488 c2 -269 0 -504 -3 -523 -7 -39 2 -40 -170 14 -173 53 -298 75 -478 82
-137 5 -180 3 -313 -17 -84 -13 -157 -20 -161 -16 -11 11 -26 1097 -16 1107
20 20 171 28 443 24 157 -2 312 -9 345 -15z m-907 -1087 c13 -156 0 -149 270
-143 412 9 518 6 617 -18 50 -13 96 -26 103 -31 7 -4 15 -23 18 -43 l6 -35
-468 -7 c-458 -6 -554 -3 -604 24 -48 26 -51 56 -62 519 -5 240 -7 464 -3 498
7 64 17 79 70 107 l30 16 7 -392 c4 -215 12 -438 16 -495z m2713 855 l39 -22
0 -514 0 -514 -36 -44 -36 -44 -183 0 c-100 0 -338 3 -528 7 l-347 6 0 28 c0
16 9 37 21 48 44 41 102 46 529 46 374 0 407 1 432 18 14 10 29 26 33 35 4 9
9 232 12 495 4 294 10 477 16 477 5 0 27 -10 48 -22z"/>
<path d="M2715 4136 c-199 -46 -399 -174 -533 -341 -82 -101 -105 -143 -140
-250 -43 -131 -56 -225 -49 -367 10 -237 86 -414 251 -587 194 -202 379 -281
658 -281 246 0 372 55 568 247 l115 113 -80 -48 c-123 -73 -167 -84 -336 -90
-173 -5 -231 6 -359 70 -151 76 -300 252 -350 413 -27 88 -38 278 -21 385 27
178 138 319 326 417 158 82 239 105 370 106 61 1 137 -5 170 -12 71 -16 185
-66 251 -112 l47 -32 -24 43 c-58 103 -266 253 -424 305 -68 23 -100 27 -230
31 -105 3 -168 0 -210 -10z"/>
<path d="M2968 3553 c2 -76 -1 -156 -5 -178 -8 -38 -11 -41 -68 -58 -90 -28
-240 -86 -261 -102 -23 -16 -36 -11 153 -65 78 -22 154 -45 168 -50 l25 -10 0
-145 c0 -80 3 -145 8 -145 4 0 52 45 107 100 71 71 107 100 124 100 13 0 70
-13 127 -30 137 -39 184 -47 184 -29 0 23 -109 177 -162 229 -26 26 -48 52
-48 58 0 6 40 61 88 122 49 61 97 125 107 142 l18 31 -44 -7 c-24 -4 -98 -25
-163 -47 l-120 -40 -45 53 c-54 62 -184 202 -191 206 -3 1 -4 -60 -2 -135z"/>
<path d="M3480 1440 c-107 -9 -333 -84 -353 -117 -3 -5 1 -23 8 -40 l14 -32
49 14 c28 9 69 22 91 30 91 32 258 48 406 40 182 -11 195 -10 206 6 5 8 8 25
7 39 -3 23 -10 26 -85 41 -105 21 -235 29 -343 19z"/>
<path d="M3525 1163 c-127 -16 -349 -74 -374 -98 -9 -9 -11 -24 -7 -49 8 -43
22 -45 128 -16 117 31 240 42 437 38 160 -3 185 -1 194 13 15 24 0 64 -29 78
-23 10 -281 43 -309 39 -5 0 -23 -3 -40 -5z"/>
<path d="M3332 845 c-134 -35 -202 -68 -202 -98 0 -13 8 -32 19 -41 17 -16 25
-15 127 15 105 30 118 32 362 38 219 6 255 10 270 24 26 27 4 50 -69 69 -48
12 -108 17 -239 17 -153 0 -187 -3 -268 -24z"/>
<path d="M1947 1426 c-64 -14 -77 -26 -77 -70 l0 -28 213 7 c244 8 306 1 441
-50 l91 -34 17 22 c40 51 14 76 -141 128 -93 32 -101 32 -291 35 -135 3 -213
-1 -253 -10z"/>
<path d="M2040 1159 c-47 -5 -105 -14 -130 -22 -38 -11 -46 -17 -48 -41 -2
-16 2 -34 8 -40 7 -7 100 -13 273 -17 257 -6 264 -7 356 -37 51 -17 99 -28
106 -26 16 7 39 59 31 73 -9 14 -157 69 -246 91 -92 23 -237 31 -350 19z"/>
<path d="M1997 869 c-37 -5 -83 -15 -102 -23 -29 -12 -35 -20 -35 -45 0 -16 6
-31 13 -34 6 -3 93 -2 192 1 200 5 309 -7 456 -54 63 -20 83 -23 95 -13 20 16
17 63 -5 83 -25 23 -107 53 -195 72 -86 19 -325 26 -419 13z"/>
<path d="M4852 5569 c-105 -20 -224 -106 -270 -193 -25 -48 -27 -59 -27 -176
0 -121 1 -128 32 -191 41 -82 111 -150 200 -191 55 -26 79 -31 142 -32 73 -1
80 1 149 42 131 78 220 193 236 304 8 55 -8 155 -34 216 -23 51 -110 146 -165
177 -69 40 -186 60 -263 44z m134 -149 c32 -16 73 -41 89 -55 l30 -26 -58 4
c-91 6 -153 -8 -226 -52 -71 -43 -115 -58 -125 -43 -9 15 19 110 40 133 33 37
103 66 165 68 14 1 52 -12 85 -29z"/>
<path d="M698 5547 c-100 -38 -216 -135 -257 -216 -69 -134 -39 -302 74 -415
82 -82 188 -126 300 -126 136 0 283 148 315 318 13 69 -3 179 -34 248 -31 68
-92 133 -158 169 -62 34 -178 45 -240 22z m145 -154 c33 -17 107 -82 107 -94
0 -5 -12 -4 -26 1 -36 14 -122 12 -167 -4 -20 -8 -61 -30 -91 -51 -61 -42 -89
-43 -94 -3 -4 37 20 80 67 117 74 59 136 69 204 34z"/>
<path d="M3898 5478 c-9 -7 -18 -26 -21 -43 -2 -16 -8 -38 -12 -47 -12 -29 13
-21 45 14 16 17 34 44 39 60 9 25 8 28 -13 28 -12 0 -29 -6 -38 -12z"/>
<path d="M1525 5441 c-46 -28 -63 -52 -76 -106 -16 -69 -21 -78 -53 -86 -54
-15 -96 -72 -96 -132 0 -51 46 -134 99 -175 26 -21 64 -57 86 -80 72 -81 128
-93 178 -39 31 33 118 136 185 218 46 57 45 106 -3 154 -20 19 -52 43 -73 53
-33 15 -37 23 -48 74 -14 71 -36 106 -79 124 -46 19 -84 18 -120 -5z m95 -147
c53 -36 101 -90 111 -126 18 -68 -31 -137 -129 -180 -39 -18 -45 -18 -66 -4
-33 21 -104 131 -112 172 -6 32 -3 38 57 94 69 64 96 72 139 44z"/>
<path d="M1835 5430 c-3 -5 4 -19 15 -30 15 -15 31 -20 58 -18 43 3 50 22 10
26 -14 2 -32 10 -38 18 -14 16 -36 18 -45 4z"/>
<path d="M947 1548 c-13 -24 -54 -101 -91 -172 -106 -203 -89 -195 -153 -74
-108 204 -142 248 -192 248 -27 0 -79 -46 -95 -84 -7 -18 -43 -85 -80 -149
l-66 -117 0 -177 c1 -283 15 -543 32 -583 19 -45 130 -147 186 -172 37 -17 48
-18 73 -8 20 9 52 10 96 6 58 -6 68 -4 88 14 l22 21 49 -36 c135 -96 176 -106
281 -71 62 21 88 50 102 114 16 75 31 322 40 632 l7 285 -37 87 c-83 190 -115
237 -178 264 -50 21 -58 18 -84 -28z m108 -222 c52 -94 61 -123 42 -144 -15
-16 -15 -19 3 -30 17 -11 20 -24 20 -100 0 -48 -7 -161 -15 -252 -8 -91 -15
-191 -15 -222 0 -60 -7 -91 -20 -83 -4 2 -10 -27 -13 -65 -3 -38 -11 -78 -17
-89 -22 -42 -88 -33 -134 17 -30 34 -39 167 -33 480 l6 282 62 140 c34 77 65
137 70 134 5 -2 24 -33 44 -68z m-442 -126 c40 -57 7 -77 -107 -65 -96 11 -96
10 -49 112 22 48 44 97 47 107 5 15 15 4 49 -55 23 -41 50 -85 60 -99z"/>
<path d="M4755 1560 c-49 -15 -102 -66 -132 -128 l-28 -57 0 -500 0 -500 31
-55 c17 -30 50 -70 73 -87 51 -40 139 -67 184 -58 77 16 167 95 202 178 12 29
16 114 21 436 l7 401 96 0 c53 0 103 -5 111 -10 31 -19 22 -670 -10 -755 -6
-16 -26 -46 -45 -67 -29 -31 -35 -46 -35 -83 0 -25 4 -45 8 -45 32 0 177 135
233 216 l32 47 -6 421 c-7 494 -8 502 -86 579 -50 50 -52 51 -119 55 -85 5
-130 -15 -191 -84 l-42 -48 -57 60 c-58 61 -89 76 -177 87 -22 3 -53 2 -70 -3z
m85 -123 c0 -30 -24 -62 -38 -53 -17 10 -15 42 4 60 22 22 34 20 34 -7z m458
-39 c7 -6 20 -24 28 -40 12 -23 12 -29 2 -32 -32 -10 -110 -15 -157 -9 l-51 6
23 40 c12 22 31 43 42 48 24 11 94 2 113 -13z m-332 -494 c-4 -157 -9 -291
-12 -299 -6 -16 -58 -25 -146 -25 l-68 0 0 274 c0 150 3 288 6 305 l7 31 110
0 110 0 -7 -286z m-22 -440 c56 -21 -41 -144 -113 -144 -42 0 -129 105 -107
128 14 14 192 27 220 16z"/>
</g>
</svg>
